Coordinates
nRows=134
nColumns=2
inDegrees=yes
endheader
time	ankle_angle_r	
3.37478	  9.566889	
3.43728	  9.582421	
3.49978	  9.597224	
3.56227	  9.641159	
3.62477	  9.658944	
3.68726	  9.649017	
3.74976	  9.614806	
3.81226	  9.559794	
3.87475	  9.564449	
3.93725	  9.588969	
3.99974	  9.600339	
4.06224	  9.618111	
4.12474	  9.584972	
4.18723	  9.550117	
4.24973	  9.528744	
4.31222	  9.471268	
4.37472	  9.459354	
4.43722	  9.495380	
4.49971	  9.543735	
4.56221	  9.593091	
4.6247	  9.583059	
4.6872	  9.568410	
4.7497	  9.563903	
4.81219	  9.526760	
4.87469	  9.511298	
4.93718	  9.509506	
4.99968	  9.532639	
5.06218	  9.585497	
5.12467	  9.580250	
5.18717	  9.560646	
5.24966	  9.556529	
5.31216	  9.519071	
5.37466	  9.497835	
5.43715	  9.504543	
5.49965	  9.552796	
5.56214	  9.630532	
5.62464	  9.620214	
5.68714	  9.554699	
5.74963	  9.510277	
5.81213	  9.488344	
5.87462	  9.502526	
5.93712	  9.500489	
5.99962	  9.498381	
6.06211	  9.538461	
6.12461	  9.562568	
6.1871	  9.558003	
6.2496	  9.524195	
6.3121	  9.511964	
6.37459	  9.557437	
6.43709	  9.566070	
6.49958	  9.578380	
6.56208	  9.638967	
6.62458	  9.652859	
6.68707	  9.643309	
6.74957	  9.627645	
6.81206	  9.590922	
6.87456	  9.578295	
6.93706	  9.565661	
6.99955	  9.572600	
7.06205	  9.611255	
7.12454	  9.627265	
7.18704	  9.652033	
7.24954	  9.646851	
7.31203	  9.583345	
7.37453	  9.561921	
7.43702	  9.569387	
7.49952	  9.572864	
7.56202	  9.601332	
7.62451	  9.633161	
7.68701	  9.640508	
7.7495	  9.604872	
7.812	  9.567936	
7.8745	  9.561759	
7.93699	  9.556891	
7.99949	  9.575823	
8.06198	  9.582459	
8.12448	  9.533937	
8.18698	  9.514395	
8.24947	  9.541157	
8.31197	  9.544485	
8.37446	  9.501179	
8.43696	  9.468595	
8.49946	  9.512614	
8.56195	  9.562936	
8.62445	  9.549219	
8.68694	  9.542468	
8.74944	  9.553460	
8.81194	  9.525474	
8.87443	  9.502387	
8.93693	  9.518512	
8.99942	  9.537765	
9.06192	  9.555573	
9.12442	  9.563370	
9.18691	  9.533557	
9.24941	  9.499579	
9.3119	  9.501554	
9.3744	  9.504786	
9.4369	  9.503070	
9.49939	  9.542411	
9.56189	  9.589720	
9.62438	  9.597649	
9.68688	  9.570962	
9.74938	  9.518037	
9.81187	  9.471108	
9.87437	  9.455680	
9.93686	  9.501176	
9.99936	  9.574159	
10.0619	  9.576102	
10.1244	  9.561305	
10.1868	  9.590502	
10.2493	  9.599480	
10.3118	  9.577847	
10.3743	  9.556745	
10.4368	  9.575220	
10.4993	  9.624949	
10.5618	  9.637403	
10.6243	  9.633776	
10.6868	  9.621034	
10.7493	  9.581116	
10.8118	  9.570555	
10.8743	  9.570571	
10.9368	  9.587836	
10.9993	  9.647923	
11.0618	  9.661571	
11.1243	  9.651058	
11.1868	  9.635810	
11.2493	  9.566737	
11.3118	  9.526311	
11.3743	  9.527409	
11.4368	  9.559602	
11.4993	  9.618625	
11.5618	  9.572525	
11.6243	  9.508885	
11.6868	  9.612950	
